<svg width="122" height="41" viewBox="0 0 122 41" fill="none" xmlns="http://www.w3.org/2000/svg">
<path d="M18.9991 5.61379C10.6612 6.50332 4.60967 13.8555 5.48208 22.0353C6.35448 30.2151 13.9465 36.111 21.9352 35.2597C21.9352 35.2597 23.8144 34.9922 23.6102 33.08C23.4059 31.1679 21.4357 31.3194 21.4357 31.3194C15.7849 31.9217 10.1446 27.6071 9.5041 21.6057C8.86363 15.6043 13.3034 10.2104 19.4208 9.55806C22.3661 9.24441 24.5814 10.072 26.0719 10.897C26.7018 11.2462 28.2634 11.3543 28.8446 9.92046C29.4271 8.48666 28.2397 7.51542 27.8905 7.33883C27.5413 7.16224 24.0082 5.07875 18.9991 5.61247V5.61379Z" fill="#FB7411"/>
<path d="M41.6498 20.7478C41.8211 9.46451 32.6358 0.176432 21.1338 0.00247776C9.63172 -0.171476 0.172322 8.8359 0.00232219 20.1192C-0.167678 31.4025 9.01761 40.6905 20.5183 40.8645C21.537 40.8566 23.1224 40.8381 24.4666 40.5601C25.4483 40.3571 26.0848 39.1882 25.9267 38.3435C25.6289 36.2547 23.6152 36.6593 23.6152 36.6593C23.154 36.7278 22.4634 36.911 20.5776 36.882C11.3185 36.7423 3.92287 29.2649 4.05993 20.1798C4.19698 11.0947 11.814 3.84396 21.0745 3.98365C30.3335 4.12334 37.7292 11.6007 37.5922 20.6858C37.5065 26.3815 34.6877 30.7857 30.8422 33.6322C30.8422 33.6322 29.2872 34.8631 30.2545 36.4129C31.2218 37.9626 33.1076 36.9413 33.1076 36.9413C37.0558 34.0961 41.5285 28.7378 41.6498 20.7465V20.7478Z" fill="#FB7411"/>
<path d="M20.6621 11.0447C15.6662 11.0447 11.0234 14.9441 11.0234 20.6121C11.0234 26.2801 16.3633 29.9529 20.2773 29.8185C20.2773 29.8185 22.1987 29.8185 22.2527 27.8694C22.3067 25.9204 20.2773 25.9204 20.2773 25.9204C17.979 25.9204 15.3196 23.6142 15.3196 20.3842C15.3196 17.3729 17.7958 14.9455 20.7649 14.9455C23.7339 14.9455 26.2101 17.3808 26.2101 20.3842L26.2233 27.8694C26.2233 27.8694 26.3221 29.8185 28.1829 29.8185C30.0437 29.8185 30.1584 27.8694 30.1584 27.8694V20.5766C30.1584 14.8361 25.6593 11.046 20.6634 11.046L20.6621 11.0447Z" fill="#FB7411"/>
<path d="M18.9991 5.61379C10.6612 6.50332 4.60967 13.8555 5.48208 22.0353C6.35448 30.2151 13.9465 36.111 21.9352 35.2597C21.9352 35.2597 23.8144 34.9922 23.6102 33.08C23.4059 31.1679 21.4357 31.3194 21.4357 31.3194C15.7849 31.9217 10.1446 27.6071 9.5041 21.6057C8.86363 15.6043 13.3034 10.2104 19.4208 9.55806C22.3661 9.24441 24.5814 10.072 26.0719 10.897C26.7018 11.2462 28.2634 11.3543 28.8446 9.92046C29.4271 8.48666 28.2397 7.51542 27.8905 7.33883C27.5413 7.16224 24.0082 5.07875 18.9991 5.61247V5.61379Z" fill="url(#paint0_linear_2756_49)"/>
<path d="M41.6498 20.7478C41.8211 9.46451 32.6358 0.176432 21.1338 0.00247776C9.63172 -0.171476 0.172322 8.8359 0.00232219 20.1192C-0.167678 31.4025 9.01761 40.6905 20.5183 40.8645C21.537 40.8566 23.1224 40.8381 24.4666 40.5601C25.4483 40.3571 26.0848 39.1882 25.9267 38.3435C25.6289 36.2547 23.6152 36.6593 23.6152 36.6593C23.154 36.7278 22.4634 36.911 20.5776 36.882C11.3185 36.7423 3.92287 29.2649 4.05993 20.1798C4.19698 11.0947 11.814 3.84396 21.0745 3.98365C30.3335 4.12334 37.7292 11.6007 37.5922 20.6858C37.5065 26.3815 34.6877 30.7857 30.8422 33.6322C30.8422 33.6322 29.2872 34.8631 30.2545 36.4129C31.2218 37.9626 33.1076 36.9413 33.1076 36.9413C37.0558 34.0961 41.5285 28.7378 41.6498 20.7465V20.7478Z" fill="url(#paint1_linear_2756_49)"/>
<path d="M20.6621 11.0447C15.6662 11.0447 11.0234 14.9441 11.0234 20.6121C11.0234 26.2801 16.3633 29.9529 20.2773 29.8185C20.2773 29.8185 22.1987 29.8185 22.2527 27.8694C22.3067 25.9204 20.2773 25.9204 20.2773 25.9204C17.979 25.9204 15.3196 23.6142 15.3196 20.3842C15.3196 17.3729 17.7958 14.9455 20.7649 14.9455C23.7339 14.9455 26.2101 17.3808 26.2101 20.3842L26.2233 27.8694C26.2233 27.8694 26.3221 29.8185 28.1829 29.8185C30.0437 29.8185 30.1584 27.8694 30.1584 27.8694V20.5766C30.1584 14.8361 25.6593 11.046 20.6634 11.046L20.6621 11.0447Z" fill="url(#paint2_linear_2756_49)"/>
<path d="M100.004 22C100.004 16.1549 105.315 12 111.042 12C116.769 12 122 16.2327 122 22C122 22 122.011 22.8593 121.843 23.6938C120.844 23.6938 104.998 23.7008 104.998 23.7008C106.166 26.8232 108.84 27.8487 111.042 27.8487C112.343 27.8487 113.53 27.4243 114.071 27.0919C114.071 27.0919 116.216 26.1584 117.223 27.8734C118.23 29.5919 116.395 30.7235 116.395 30.7235C115.479 31.1337 113.675 32 111.038 32C105.311 32 100 27.8416 100 22H100.004ZM116.83 19.8713C115.701 17.2723 113.156 16.1513 111.046 16.1513C108.936 16.1513 106.303 17.2228 105.174 19.8713H116.83Z" fill="#263570"/>
<path d="M65.082 12C59.3388 12 54 16.1533 54 22.1907C54 28.2281 60.1402 32.141 64.6394 31.9961C64.6394 31.9961 66.8489 31.9961 66.91 29.9212C66.971 27.8463 64.6394 27.8463 64.6394 27.8463C61.9948 27.8463 58.9381 25.3897 58.9381 21.9503C58.9381 18.7443 61.7849 16.1569 65.2003 16.1569C68.6158 16.1569 71.4626 18.7514 71.4626 21.9503L71.4779 29.9212C71.4779 29.9212 71.5924 31.9961 73.7294 31.9961C75.8664 31.9961 76 29.9212 76 29.9212V22.1554C76 16.0402 70.8253 12.0035 65.082 12.0035V12Z" fill="#263570"/>
<path d="M88.0343 12.0036C82.5725 12.0036 77 15.97 77 22.2474C77 28.5249 82.6106 32.4913 87.9962 32.4913C91.6044 32.4913 94.2552 31.2561 94.2552 29.3C94.2552 30.0897 94.2399 30.5932 94.2399 31.1474C94.2399 34.6248 90.6089 36.7474 88.1259 36.7474C84.346 36.7474 82.8967 34.3531 82.5114 33.6504C82.5114 33.6504 81.371 31.8682 79.4296 32.705C77.4844 33.5381 78.3006 35.5811 78.3006 35.5811C79.8301 38.3521 83.3658 41 88.0038 41C92.6418 41 99 37.8885 99 30.441V22.4032C99 16.1004 93.5076 12 88.0458 12L88.0343 12.0036ZM87.9924 28.2387C84.5368 28.2387 81.7334 25.4785 81.7334 22.2003C81.7334 18.9222 84.5329 16.2634 87.9924 16.2634C91.4518 16.2634 94.2514 18.9222 94.2514 22.2003C94.2514 25.4785 91.4518 28.2387 87.9924 28.2387Z" fill="#263570"/>
<defs>
<linearGradient id="paint0_linear_2756_49" x1="0.00121398" y1="20.4328" x2="41.6539" y2="20.4328" gradientUnits="userSpaceOnUse">
<stop stop-color="#F59D1B"/>
<stop offset="1" stop-color="#FC461B"/>
</linearGradient>
<linearGradient id="paint1_linear_2756_49" x1="-0.000313476" y1="20.4328" x2="41.6524" y2="20.4328" gradientUnits="userSpaceOnUse">
<stop stop-color="#F59D1B"/>
<stop offset="1" stop-color="#FC461B"/>
</linearGradient>
<linearGradient id="paint2_linear_2756_49" x1="-0.00286194" y1="20.4329" x2="41.6499" y2="20.4329" gradientUnits="userSpaceOnUse">
<stop stop-color="#F59D1B"/>
<stop offset="1" stop-color="#FC461B"/>
</linearGradient>
</defs>
</svg>
